<?xml version="1.0" encoding="utf-8"?>
<!-- Generator: Adobe Illustrator 16.0.0, SVG Export Plug-In . SVG Version: 6.00 Build 0)  -->
<!DOCTYPE svg PUBLIC "-//W3C//DTD SVG 1.1//EN" "http://www.w3.org/Graphics/SVG/1.1/DTD/svg11.dtd">
<svg version="1.1" id="Warstwa_1" xmlns="http://www.w3.org/2000/svg" xmlns:xlink="http://www.w3.org/1999/xlink" x="0px" y="0px"
	 width="384px" height="175px" viewBox="0 0 384 175" enable-background="new 0 0 384 175" xml:space="preserve">
<g>
	<path fill="#FFFFFF" d="M122.533,136.691c0,7.446,2.49,13.748,7.466,18.906c4.979,5.157,11.008,7.738,18.09,7.738
		c7.031,0,13.011-2.581,17.937-7.738c4.929-5.158,7.391-11.46,7.391-18.906c0-7.44-2.462-13.742-7.391-18.904
		c-4.926-5.158-10.906-7.736-17.937-7.736c-7.133,0-13.174,2.578-18.128,7.736C125.005,122.949,122.533,129.251,122.533,136.691
		L122.533,136.691z M109.751,136.691c0-5.186,0.951-10.068,2.85-14.669c1.898-4.594,4.671-8.686,8.314-12.279
		c3.645-3.595,7.777-6.326,12.395-8.201c4.621-1.875,9.548-2.811,14.779-2.811c5.135,0,9.996,0.948,14.589,2.851
		c4.591,1.897,8.762,4.67,12.511,8.314c3.643,3.54,6.417,7.611,8.314,12.206c1.897,4.593,2.849,9.455,2.849,14.589
		c0,5.138-0.951,9.976-2.849,14.519c-1.896,4.54-4.671,8.585-8.314,12.126c-3.749,3.696-7.943,6.517-12.588,8.473
		c-4.643,1.948-9.482,2.923-14.512,2.923c-5.18,0-10.098-0.961-14.741-2.89c-4.643-1.922-8.788-4.681-12.433-8.277
		c-3.643-3.692-6.416-7.801-8.314-12.32C110.703,146.729,109.751,141.876,109.751,136.691L109.751,136.691z"/>
	<polygon fill="#FFFFFF" points="201.012,171.729 201.012,99.763 213.102,99.763 213.102,133.229 247.049,101.276 263.141,101.276 
		227.957,133.537 266.295,171.729 249.434,171.729 213.102,134.537 213.102,171.729 	"/>
	<polygon fill="#FFFFFF" points="279.385,171.729 279.385,114.862 285.465,121.1 291.543,114.862 291.543,171.729 	"/>
	<path fill="#FFFFFF" d="M319.834,136.691c0,7.446,2.488,13.748,7.469,18.906c4.977,5.157,11.008,7.738,18.092,7.738
		c7.027,0,13.008-2.581,17.936-7.738c4.926-5.158,7.391-11.46,7.391-18.906c0-7.44-2.465-13.742-7.391-18.904
		c-4.928-5.158-10.908-7.736-17.936-7.736c-7.133,0-13.178,2.578-18.131,7.736C322.313,122.949,319.834,129.251,319.834,136.691
		L319.834,136.691z M307.057,136.691c0-5.186,0.945-10.068,2.85-14.669c1.898-4.594,4.668-8.686,8.314-12.279
		c3.641-3.595,7.771-6.326,12.393-8.201c4.617-1.875,9.545-2.811,14.781-2.811c5.129,0,9.996,0.948,14.588,2.851
		c4.594,1.897,8.764,4.67,12.508,8.314c3.648,3.54,6.416,7.611,8.313,12.206c1.898,4.593,2.852,9.455,2.852,14.589
		c0,5.138-0.953,9.976-2.852,14.519c-1.896,4.54-4.664,8.585-8.313,12.126c-3.744,3.696-7.943,6.517-12.586,8.473
		c-4.645,1.948-9.482,2.923-14.51,2.923c-5.184,0-10.098-0.961-14.746-2.89c-4.646-1.922-8.787-4.681-12.428-8.277
		c-3.646-3.692-6.416-7.801-8.314-12.32C308.002,146.729,307.057,141.876,307.057,136.691L307.057,136.691z"/>
	<path fill="#FFFFFF" d="M90.457,106.438c-4.414-4.417-10.548-7.463-18.399-7.463c-0.735,0-1.46,0.031-2.169,0.072
		c-0.716-0.041-1.439-0.072-2.179-0.072c-7.854,0-13.981,3.046-18.396,7.463c-0.206,0.204-0.405,0.418-0.601,0.634
		c-0.197-0.216-0.394-0.43-0.602-0.634c-4.414-4.417-10.542-7.463-18.392-7.463c-0.736,0-1.462,0.031-2.175,0.072
		c-0.71-0.041-1.439-0.072-2.179-0.072c-7.853,0-13.98,3.046-18.394,7.463c-4.412,4.411-6.626,10.545-6.626,18.397v47.137h11.931
		v-40.666c0-7.135,1.438-12.436,4.314-15.897c2.495-3.01,6.15-4.699,10.96-5.099c4.804,0.399,8.452,2.095,10.944,5.099
		c2.424,2.914,3.812,7.159,4.193,12.688v43.876h0.119H54.62h0.12v-43.876c0.379-5.528,1.769-9.773,4.189-12.688
		c2.495-3.01,6.151-4.699,10.964-5.099c4.805,0.399,8.454,2.095,10.943,5.099c2.872,3.462,4.31,8.763,4.31,15.897v40.666h11.935
		v-47.137C97.081,116.982,94.868,110.849,90.457,106.438z"/>
	<path fill="#FFFFFF" d="M349.389,33.623l-13.668-13.816l0.004-0.019l-0.131-0.105l-0.016-0.021l-0.002,0.002L319.611,6.458
		l-20.625-6.101l-0.625-0.089l-26.08,0.038l-0.627,0.093l-21.213,6.442l-15.283,12.819l-13.619,13.962l-0.9,0.965l0.359,1.157
		l3.559,12.654l42.5,47.967l0.205,0.264l18.365,18.852l17.977-18.524l0,0l0.002-0.003l0.236-0.242l42.539-47.88l3.551-13.087
		l0.375-1.228L349.389,33.623z M340.543,47.8l-7.471,5.626l-5.096-9.633l-1.443-2.729l12.607,6.058L340.543,47.8z M261.502,30.591
		l-9.816,2.725l-0.158-6.784l10.367,3.949L261.502,30.591z M329.146,55.375l-3.221,0.946l-11.76,3.457l7.396-18.055l0.162-0.387
		l3.957,7.482L329.146,55.375z M318.506,37.628l-1.025,2.505l-7.961,19.07l-20.094-16.146l13.289-9.93L318.506,37.628z
		 M283.393,65.058l-17.721-3.415l17.711-14.182l0.012,13.778L283.393,65.058z M287.775,60.505l0.012-13.079l17.732,14.203
		l-17.742,3.419L287.775,60.505z M256.588,59.39l-14.797-4.348l7.34-13.87L256.588,59.39z M276.563,33.315h17.324l-8.664,6.475
		L276.563,33.315z M268.012,33.332L281.4,43.34l-19.836,15.939l-9.012-21.585l10.059-2.865L268.012,33.332z M279.418,68.751
		l3.963,0.764l-0.105,22.586l-17.881-26.053L279.418,68.751z M319.355,26.482l-0.154,6.624l-9.959-2.759l6.986-2.674L319.355,26.482
		z M230.852,47.623l13.322-6.443l-3.615,6.837l-2.65,5.008l-3.484-2.622L230.852,47.623z M287.688,92.394l0.088-22.885l17.998-3.468
		l-14.15,20.622L287.688,92.394z M326.455,60.73l-19.527,25.167l5.42-21.018L326.455,60.73z M340.389,42.863l-16.676-8.067
		l0.215-9.708l8.955-1.227l0.865,2.145L340.389,42.863z M323.654,20.695l-1.305-6.507l6.703,5.681L323.654,20.695z M247.328,20.764
		l-1.264-0.177l-4.295-0.651l6.781-5.749L247.328,20.764z M238.012,23.905l7.453,1.021l1.594,0.244l0.211,9.371l-16.727,8.314
		l7.422-18.836L238.012,23.905z M244.621,60.476l14.094,4.143l1.063,4.119l4.143,16.608L244.621,60.476z M287.869,99.869
		l6.502-9.474l10.693-15.578l-4.813,19.305l-12.367,12.727L287.869,99.869z M344.162,40.093l-3.834-9.486l5.045,5.171
		L344.162,40.093z M272.609,4.686l25.439-0.036l19.051,5.635l0.025,0.117l2.1,11.405l-17.852,6.377h-31.574l-18.172-6.35
		l2.117-11.478L272.609,4.686z M230.566,30.643l-3.809,9.422l-1.205-4.287L230.566,30.643z M265.773,74.455l17.463,25.742
		l-0.014,6.571l-12.412-12.773L265.773,74.455z"/>
</g>
</svg>
